<svg viewBox="0 0 149 143" fill="none" xmlns="http://www.w3.org/2000/svg">
<path d="M133 0.0263672H16C7.16344 0.0263672 0 7.18981 0 16.0264V126.026C0 134.863 7.16344 142.026 16 142.026H133C141.837 142.026 149 134.863 149 126.026V16.0264C149 7.18981 141.837 0.0263672 133 0.0263672Z" fill="url(#paint0_linear_0_19)"/>
<path fill-rule="evenodd" clip-rule="evenodd" d="M15.9861 0.00860306C34.1138 -0.00717309 47.1184 -0.00125169 55 0.0263672C54.1953 36.2686 55.1621 106.95 55 142.026C42.1218 141.82 29.1571 141.759 16.106 141.846V141.846C7.26967 141.904 0.0589108 134.789 0.000351336 125.952C0.000117109 125.917 -3.37313e-09 125.882 0 125.846L7.60783e-06 16.0086C8.45064e-06 7.17748 7.15497 0.0162886 15.9861 0.00860306Z" fill="url(#paint1_linear_0_19)"/>
<path fill-rule="evenodd" clip-rule="evenodd" d="M55.3807 66.1902C79.5117 65.7695 124.754 65.8625 148.409 66.1902C147.895 79.3895 147.811 99.0222 148.155 125.088V125.088C148.272 133.924 141.204 141.181 132.368 141.298C132.308 141.299 132.248 141.299 132.187 141.3C97.1625 141.367 71.5602 141.355 55.3807 141.264C54.6194 119.03 55.3154 95.1377 55.3807 66.1902Z" fill="url(#paint2_linear_0_19)"/>
<g filter="url(#filter0_i_0_19)">
<path d="M39.7557 45.1438C16.7462 53.0891 26.9209 84.3173 48.823 78.9836C65.6155 74.3339 95.663 66.4329 102.169 64.6897C109.93 63.2809 115.239 74.854 106.025 79.0813C95.2098 81.9793 49.363 94.2639 42.4988 96.1031C34.8867 97.8399 28.6638 88.1715 37.0932 82.1266C31.3213 80.711 29.2981 77.4299 28.2184 76.1668C16.7168 86.1424 22.9637 109.781 45.1043 105.827C60.0235 101.83 97.394 91.8162 108.631 88.8054C128.504 82.8661 124.678 51.2011 99.5632 54.9656C84.0747 59.1157 52.8236 67.4894 46.2175 69.2596C37.1971 70.3457 33.1496 59.3331 42.3612 54.8679C52.7195 52.0924 94.2096 40.554 106.295 37.737C116.234 38.0599 117.24 47.7221 111.128 51.6276C114.524 52.6244 118.064 54.3738 119.95 57.5484C130.4 49.2046 126.346 24.8797 103.689 28.0129C85.5469 32.8741 46.1922 43.4192 39.7557 45.1438Z" fill="black"/>
</g>
<path d="M39.7557 45.1438C16.7462 53.0891 26.9209 84.3173 48.823 78.9836C65.6155 74.3339 95.663 66.4329 102.169 64.6897C109.93 63.2809 115.239 74.854 106.025 79.0813C95.2098 81.9793 49.363 94.2639 42.4988 96.1031C34.8867 97.8399 28.6638 88.1715 37.0932 82.1266C31.3213 80.711 29.2981 77.4299 28.2184 76.1668C16.7168 86.1424 22.9637 109.781 45.1043 105.827C60.0235 101.83 97.394 91.8162 108.631 88.8054C128.504 82.8661 124.678 51.2011 99.5632 54.9656C84.0747 59.1157 52.8236 67.4894 46.2175 69.2596C37.1971 70.3457 33.1496 59.3331 42.3612 54.8679C52.7195 52.0924 94.2096 40.554 106.295 37.737C116.234 38.0599 117.24 47.7221 111.128 51.6276C114.524 52.6244 118.064 54.3738 119.95 57.5484C130.4 49.2046 126.346 24.8797 103.689 28.0129C85.5469 32.8741 46.1922 43.4192 39.7557 45.1438Z" fill="white" stroke="white" stroke-width="2"/>
<path fill-rule="evenodd" clip-rule="evenodd" d="M35.6915 93.4279C33.626 90.9243 32.1689 86.5232 39.5538 82.0446C37.8831 81.6041 35.4376 81.3607 32.6619 79.5481C30.48 78.1638 29.2944 76.2091 28.3421 75.1178C25.411 77.2869 22.675 81.4342 21.8696 85.7305C21.0212 90.2562 21.85 94.1895 23.1048 97.2267C38.1516 93.1949 22.5911 96.9382 35.6915 93.4279Z" fill="url(#paint3_linear_0_19)" fill-opacity="0.15"/>
<path fill-rule="evenodd" clip-rule="evenodd" d="M109.06 39.0337C122.378 35.4652 109.028 39.5128 124.325 35.4141C126.736 38.5892 129.83 51.7405 119.795 58.9335C117.653 55.3904 116.113 54 108.683 51.8933C109.357 51.3583 113.482 49.6858 113.973 45.405C114.226 41.1568 110.996 39.688 109.06 39.0337Z" fill="url(#paint4_linear_0_19)" fill-opacity="0.15"/>
<defs>
<filter id="filter0_i_0_19" x="22.5636" y="27.7361" width="104.855" height="80.5325" filterUnits="userSpaceOnUse" color-interpolation-filters="sRGB">
<feFlood flood-opacity="0" result="BackgroundImageFix"/>
<feBlend mode="normal" in="SourceGraphic" in2="BackgroundImageFix" result="shape"/>
<feColorMatrix in="SourceAlpha" type="matrix" values="0 0 0 0 0 0 0 0 0 0 0 0 0 0 0 0 0 0 127 0" result="hardAlpha"/>
<feOffset dx="2" dy="2"/>
<feGaussianBlur stdDeviation="2"/>
<feComposite in2="hardAlpha" operator="arithmetic" k2="-1" k3="1"/>
<feColorMatrix type="matrix" values="0 0 0 0 0 0 0 0 0 0 0 0 0 0 0 0 0 0 0.0897871 0"/>
<feBlend mode="normal" in2="shape" result="effect1_innerShadow_0_19"/>
</filter>
<linearGradient id="paint0_linear_0_19" x1="8.07405" y1="28.0333" x2="131.79" y2="123.301" gradientUnits="userSpaceOnUse">
<stop stop-color="#F6614C"/>
<stop offset="1" stop-color="#FF4A36"/>
</linearGradient>
<linearGradient id="paint1_linear_0_19" x1="23.5803" y1="0" x2="23.5803" y2="142.026" gradientUnits="userSpaceOnUse">
<stop stop-color="#F6614C"/>
<stop offset="1" stop-color="#FF7162" stop-opacity="0.310773"/>
</linearGradient>
<linearGradient id="paint2_linear_0_19" x1="137.756" y1="95.5297" x2="55.0273" y2="95.5297" gradientUnits="userSpaceOnUse">
<stop stop-color="#FF513D"/>
<stop offset="1" stop-color="#E64331" stop-opacity="0.698851"/>
</linearGradient>
<linearGradient id="paint3_linear_0_19" x1="25.9321" y1="77.3386" x2="23.4486" y2="84.9407" gradientUnits="userSpaceOnUse">
<stop/>
<stop offset="1" stop-color="white"/>
</linearGradient>
<linearGradient id="paint4_linear_0_19" x1="122.287" y1="56.5331" x2="125.295" y2="48.5465" gradientUnits="userSpaceOnUse">
<stop/>
<stop offset="1" stop-color="white"/>
</linearGradient>
</defs>
</svg>
