<?xml version="1.0" encoding="UTF-8" standalone="no"?><!-- Generator: Gravit.io --><svg xmlns="http://www.w3.org/2000/svg" xmlns:xlink="http://www.w3.org/1999/xlink" style="isolation:isolate" viewBox="0 0 512 512" width="512pt" height="512pt"><defs><clipPath id="_clipPath_o33FOg4fTr2uU1UopK27Oo9WfUFu0ETE"><rect width="512" height="512"/></clipPath></defs><g clip-path="url(#_clipPath_o33FOg4fTr2uU1UopK27Oo9WfUFu0ETE)"><g><path d=" M 371.645 116.422 L 443.214 116.422 L 443.214 188.001 L 411.823 188.001 L 411.823 147.747 L 371.645 147.747 L 371.645 116.422 Z  M 327.711 261.422 L 327.711 279.281 L 300.855 279.281 L 300.855 306.14 L 282.998 306.14 L 282.998 279.281 L 256.142 279.281 L 256.142 261.422 L 282.998 261.422 L 282.856 234.491 L 300.855 234.491 L 300.855 261.422 L 327.711 261.422 Z  M 396.588 239.806 L 446.757 239.806 L 446.757 454.896 L 347.269 454.896 L 347.269 496 L 128.025 496 L 128.025 323.999 L 203.28 323.999 L 203.28 420.807 L 332.105 420.807 L 332.105 404.791 L 396.588 404.791 L 396.588 239.806 Z  M 351.875 16 L 351.875 141.368 L 190.595 141.368 L 190.737 302.526 L 65.384 302.526 L 65.243 16 L 351.875 16 Z " fill-rule="evenodd" fill="rgb(0,0,0)"/></g></g></svg>