<svg width="342" height="111" viewBox="0 0 342 111" fill="none" xmlns="http://www.w3.org/2000/svg">
<path d="M11.992 46V10.288H0.408V0.559998H33.944V10.288H22.232V46H11.992ZM48.322 46.704C43.5007 46.704 39.4473 45.1893 36.162 42.16C32.9193 39.088 31.298 35.0347 31.298 30C31.298 25.2213 32.898 21.2533 36.098 18.096C39.298 14.896 43.3087 13.296 48.13 13.296C52.61 13.296 56.386 14.6613 59.458 17.392C62.53 20.1227 64.066 23.9627 64.066 28.912C64.066 30.1493 64.002 31.28 63.874 32.304H40.642C40.898 34.1387 41.7727 35.5467 43.266 36.528C44.7593 37.4667 46.4873 37.936 48.45 37.936C50.1993 37.936 51.7567 37.5947 53.122 36.912C54.4873 36.1867 55.5113 35.312 56.194 34.288L63.362 39.664C61.826 41.84 59.7567 43.568 57.154 44.848C54.5513 46.0853 51.6073 46.704 48.322 46.704ZM40.898 25.968H54.466C54.082 24.3893 53.2713 23.1947 52.034 22.384C50.7967 21.5733 49.41 21.168 47.874 21.168C46.2527 21.168 44.7807 21.5733 43.458 22.384C42.1353 23.152 41.282 24.3467 40.898 25.968ZM68.8115 46V38.448L82.8275 22.704H69.0035V14H95.3715V21.616L81.3555 37.296H95.8835V46H68.8115ZM128.595 41.904C125.31 45.104 121.342 46.704 116.691 46.704C112.04 46.704 108.072 45.104 104.787 41.904C101.502 38.6613 99.859 34.6933 99.859 30C99.859 25.3067 101.502 21.36 104.787 18.16C108.072 14.9173 112.04 13.296 116.691 13.296C121.342 13.296 125.31 14.9173 128.595 18.16C131.88 21.36 133.523 25.3067 133.523 30C133.523 34.6933 131.88 38.6613 128.595 41.904ZM111.571 35.568C112.936 36.976 114.643 37.68 116.691 37.68C118.739 37.68 120.424 36.976 121.747 35.568C123.112 34.16 123.795 32.304 123.795 30C123.795 27.696 123.112 25.84 121.747 24.432C120.424 23.024 118.739 22.32 116.691 22.32C114.643 22.32 112.936 23.024 111.571 24.432C110.248 25.84 109.587 27.696 109.587 30C109.587 32.304 110.248 34.16 111.571 35.568ZM150.164 46.704C144.233 46.704 139.796 44.784 136.852 40.944L143.252 35.12C144.788 37.3387 147.092 38.448 150.164 38.448C152.126 38.448 153.108 37.8507 153.108 36.656C153.108 36.1013 152.852 35.6533 152.34 35.312C151.828 34.928 150.782 34.544 149.204 34.16L147.092 33.648C144.062 32.9227 141.758 31.6427 140.18 29.808C138.644 27.9733 137.918 25.7547 138.004 23.152C138.089 20.208 139.262 17.84 141.524 16.048C143.828 14.2133 146.75 13.296 150.292 13.296C155.241 13.296 158.996 15.0667 161.556 18.608L155.284 23.792C153.918 22.0853 152.233 21.232 150.228 21.232C148.478 21.232 147.604 21.7867 147.604 22.896C147.604 23.92 148.5 24.688 150.292 25.2L153.236 25.968C156.308 26.7787 158.633 27.9947 160.212 29.616C161.833 31.1947 162.644 33.3493 162.644 36.08C162.644 39.1093 161.428 41.648 158.996 43.696C156.606 45.7013 153.662 46.704 150.164 46.704ZM3.8 110V64.56H31.768V74.288H13.976V82.48H27.864V92.208H13.976V110H3.8ZM61.2825 105.904C57.9972 109.104 54.0292 110.704 49.3785 110.704C44.7278 110.704 40.7598 109.104 37.4745 105.904C34.1892 102.661 32.5465 98.6933 32.5465 94C32.5465 89.3067 34.1892 85.36 37.4745 82.16C40.7598 78.9173 44.7278 77.296 49.3785 77.296C54.0292 77.296 57.9972 78.9173 61.2825 82.16C64.5678 85.36 66.2105 89.3067 66.2105 94C66.2105 98.6933 64.5678 102.661 61.2825 105.904ZM44.2585 99.568C45.6238 100.976 47.3305 101.68 49.3785 101.68C51.4265 101.68 53.1118 100.976 54.4345 99.568C55.7998 98.16 56.4825 96.304 56.4825 94C56.4825 91.696 55.7998 89.84 54.4345 88.432C53.1118 87.024 51.4265 86.32 49.3785 86.32C47.3305 86.32 45.6238 87.024 44.2585 88.432C42.9358 89.84 42.2745 91.696 42.2745 94C42.2745 96.304 42.9358 98.16 44.2585 99.568ZM83.8675 110.704C79.9848 110.704 76.9982 109.403 74.9075 106.8C72.8168 104.197 71.7715 100.677 71.7715 96.24V78H81.4355V94.576C81.4355 99.4827 83.0782 101.936 86.3635 101.936C90.3742 101.936 92.3795 99.1413 92.3795 93.552V78H102.044V110H92.3795V106.736C90.5448 109.381 87.7075 110.704 83.8675 110.704ZM109.968 110V78H119.632V81.264C121.467 78.6187 124.432 77.296 128.528 77.296C132.411 77.296 135.44 78.5973 137.616 81.2C139.835 83.8027 140.944 87.2373 140.944 91.504V110H131.28V93.168C131.28 88.432 129.552 86.064 126.096 86.064C124.176 86.064 122.619 86.768 121.424 88.176C120.229 89.584 119.632 91.6747 119.632 94.448V110H109.968ZM161.396 110.704C157.257 110.704 153.737 109.061 150.836 105.776C147.977 102.491 146.548 98.5653 146.548 94C146.548 89.4347 147.977 85.5093 150.836 82.224C153.737 78.9387 157.257 77.296 161.396 77.296C165.065 77.296 167.967 78.5973 170.1 81.2V62H179.764V110H170.1V106.8C167.967 109.403 165.065 110.704 161.396 110.704ZM158.26 99.696C159.625 101.189 161.396 101.936 163.572 101.936C165.748 101.936 167.497 101.189 168.82 99.696C170.185 98.2027 170.868 96.304 170.868 94C170.868 91.696 170.185 89.7973 168.82 88.304C167.497 86.8107 165.748 86.064 163.572 86.064C161.396 86.064 159.625 86.8107 158.26 88.304C156.937 89.7973 156.276 91.696 156.276 94C156.276 96.304 156.937 98.2027 158.26 99.696ZM200.646 110.704C196.507 110.704 192.987 109.061 190.086 105.776C187.227 102.491 185.798 98.5653 185.798 94C185.798 89.4347 187.227 85.5093 190.086 82.224C192.987 78.9387 196.507 77.296 200.646 77.296C204.315 77.296 207.217 78.5973 209.35 81.2V78H219.014V110H209.35V106.8C207.217 109.403 204.315 110.704 200.646 110.704ZM197.51 99.696C198.875 101.189 200.646 101.936 202.822 101.936C204.998 101.936 206.747 101.189 208.07 99.696C209.435 98.2027 210.118 96.304 210.118 94C210.118 91.696 209.435 89.7973 208.07 88.304C206.747 86.8107 204.998 86.064 202.822 86.064C200.646 86.064 198.875 86.8107 197.51 88.304C196.187 89.7973 195.526 91.696 195.526 94C195.526 96.304 196.187 98.2027 197.51 99.696ZM243.288 110.384C239.533 110.384 236.44 109.36 234.008 107.312C231.619 105.221 230.424 102.213 230.424 98.288V86.384H224.024V78H230.424V69.104H240.088V78H249.048V86.384H240.088V96.304C240.088 98.224 240.515 99.6107 241.368 100.464C242.221 101.317 243.608 101.744 245.528 101.744C246.979 101.744 248.152 101.552 249.048 101.168V109.744C247.64 110.171 245.72 110.384 243.288 110.384ZM259.956 73.648C258.334 73.648 256.926 73.072 255.732 71.92C254.537 70.7253 253.94 69.296 253.94 67.632C253.94 65.968 254.537 64.56 255.732 63.408C256.926 62.2133 258.334 61.616 259.956 61.616C261.662 61.616 263.092 62.2133 264.244 63.408C265.438 64.56 266.036 65.968 266.036 67.632C266.036 69.296 265.438 70.7253 264.244 71.92C263.092 73.072 261.662 73.648 259.956 73.648ZM255.156 110V78H264.82V110H255.156ZM299.533 105.904C296.247 109.104 292.279 110.704 287.628 110.704C282.978 110.704 279.01 109.104 275.725 105.904C272.439 102.661 270.797 98.6933 270.797 94C270.797 89.3067 272.439 85.36 275.725 82.16C279.01 78.9173 282.978 77.296 287.628 77.296C292.279 77.296 296.247 78.9173 299.533 82.16C302.818 85.36 304.461 89.3067 304.461 94C304.461 98.6933 302.818 102.661 299.533 105.904ZM282.509 99.568C283.874 100.976 285.581 101.68 287.628 101.68C289.677 101.68 291.362 100.976 292.685 99.568C294.05 98.16 294.733 96.304 294.733 94C294.733 91.696 294.05 89.84 292.685 88.432C291.362 87.024 289.677 86.32 287.628 86.32C285.581 86.32 283.874 87.024 282.509 88.432C281.186 89.84 280.525 91.696 280.525 94C280.525 96.304 281.186 98.16 282.509 99.568ZM310.406 110V78H320.07V81.264C321.904 78.6187 324.87 77.296 328.966 77.296C332.848 77.296 335.878 78.5973 338.054 81.2C340.272 83.8027 341.382 87.2373 341.382 91.504V110H331.718V93.168C331.718 88.432 329.99 86.064 326.534 86.064C324.614 86.064 323.056 86.768 321.862 88.176C320.667 89.584 320.07 91.6747 320.07 94.448V110H310.406Z" fill="black"/>
</svg>
