<svg width="454" height="46" viewBox="0 0 454 46" fill="none" xmlns="http://www.w3.org/2000/svg">
<path d="M28.1484 7.24219V1.875H0.632812V7.24219H11.0156V36H17.625V7.24219H28.1484ZM38.6484 14.1328V0H32.1328V36H38.6484V17.6953C38.8984 17.3672 39.1719 17.0703 39.4688 16.8047C39.7812 16.5391 40.125 16.3125 40.5 16.125C40.9062 15.9062 41.3594 15.7422 41.8594 15.6328C42.3594 15.5234 42.8984 15.4688 43.4766 15.4688C44.2266 15.4688 44.8984 15.5703 45.4922 15.7734C46.0859 15.9609 46.5938 16.2578 47.0156 16.6641C47.4375 17.0703 47.7578 17.6016 47.9766 18.2578C48.2109 18.9141 48.3281 19.6953 48.3281 20.6016V36H54.8438V20.6484C54.8438 18.7891 54.6172 17.2031 54.1641 15.8906C53.7266 14.5625 53.1094 13.4766 52.3125 12.6328C51.5156 11.7891 50.5625 11.1719 49.4531 10.7812C48.3438 10.375 47.125 10.1719 45.7969 10.1719C44.8906 10.1719 44.0312 10.3047 43.2188 10.5703C42.4062 10.8359 41.6641 11.2109 40.9922 11.6953C40.5547 12.0078 40.1328 12.375 39.7266 12.7969C39.3359 13.2031 38.9766 13.6484 38.6484 14.1328ZM73.2656 36.4688C75.7188 36.4688 77.8438 35.9922 79.6406 35.0391C81.4375 34.0859 82.75 33.0234 83.5781 31.8516L80.3203 28.3359C79.5703 29.3047 78.5938 30.0312 77.3906 30.5156C76.1875 31 74.9453 31.2422 73.6641 31.2422C72.7578 31.2422 71.9219 31.1016 71.1562 30.8203C70.3906 30.5391 69.7109 30.1406 69.1172 29.625C68.5391 29.125 68.0781 28.5703 67.7344 27.9609C67.3906 27.3359 67.1094 26.5156 66.8906 25.5V25.4297H84.0938V22.6641C84.0938 20.8047 83.8359 19.1094 83.3203 17.5781C82.8047 16.0312 82.0547 14.7109 81.0703 13.6172C80.0703 12.5234 78.8516 11.6797 77.4141 11.0859C75.9922 10.4766 74.3672 10.1719 72.5391 10.1719C70.7734 10.1719 69.1406 10.4922 67.6406 11.1328C66.1406 11.7734 64.8438 12.6719 63.75 13.8281C62.6562 14.9844 61.8047 16.3672 61.1953 17.9766C60.5859 19.5703 60.2812 21.3359 60.2812 23.2734V24.2109C60.2812 25.9141 60.5859 27.5156 61.1953 29.0156C61.8203 30.5 62.7031 31.7891 63.8438 32.8828C64.9844 33.9922 66.3516 34.8672 67.9453 35.5078C69.5391 36.1484 71.3125 36.4688 73.2656 36.4688ZM72.4922 15.4453C73.3203 15.4453 74.0469 15.5781 74.6719 15.8438C75.3125 16.0938 75.8516 16.4375 76.2891 16.875C76.7266 17.3281 77.0703 17.8594 77.3203 18.4688C77.5703 19.0781 77.6953 19.7266 77.6953 20.4141V20.9297H67.0078C67.1641 20.1016 67.3984 19.3516 67.7109 18.6797C68.0234 18.0078 68.4141 17.4297 68.8828 16.9453C69.3359 16.4609 69.8672 16.0938 70.4766 15.8438C71.0859 15.5781 71.7578 15.4453 72.4922 15.4453ZM136.102 27.0938C136.102 27.7031 135.977 28.2656 135.727 28.7812C135.477 29.2812 135.117 29.7109 134.648 30.0703C134.18 30.4297 133.602 30.7109 132.914 30.9141C132.242 31.1172 131.469 31.2188 130.594 31.2188C129.609 31.2188 128.703 31.1094 127.875 30.8906C127.062 30.6719 126.367 30.3281 125.789 29.8594C125.195 29.3906 124.734 28.7891 124.406 28.0547C124.078 27.3203 123.898 26.4375 123.867 25.4062H117.398C117.398 27.1719 117.734 28.7109 118.406 30.0234C119.094 31.3359 120.023 32.4766 121.195 33.4453C122.43 34.4297 123.875 35.1797 125.531 35.6953C127.203 36.1953 128.891 36.4453 130.594 36.4453C132.328 36.4453 133.93 36.2422 135.398 35.8359C136.867 35.4141 138.133 34.7969 139.195 33.9844C140.258 33.1875 141.086 32.2109 141.68 31.0547C142.289 29.8828 142.594 28.5469 142.594 27.0469C142.594 25.3125 142.195 23.7812 141.398 22.4531C140.602 21.125 139.531 19.9609 138.188 18.9609C137.297 18.3516 136.32 17.8125 135.258 17.3438C134.195 16.875 133.078 16.4766 131.906 16.1484C130.812 15.8516 129.828 15.5312 128.953 15.1875C128.094 14.8438 127.359 14.4609 126.75 14.0391C126.141 13.6328 125.672 13.1719 125.344 12.6562C125.031 12.1406 124.875 11.5625 124.875 10.9219C124.875 10.3125 124.992 9.75 125.227 9.23438C125.477 8.70312 125.836 8.24219 126.305 7.85156C126.773 7.47656 127.344 7.1875 128.016 6.98438C128.703 6.76562 129.484 6.65625 130.359 6.65625C131.312 6.65625 132.141 6.78906 132.844 7.05469C133.562 7.30469 134.164 7.65625 134.648 8.10938C135.117 8.57812 135.469 9.13281 135.703 9.77344C135.953 10.4141 136.094 11.1172 136.125 11.8828H142.547C142.547 10.3516 142.25 8.94531 141.656 7.66406C141.062 6.38281 140.234 5.27344 139.172 4.33594C138.109 3.41406 136.836 2.69531 135.352 2.17969C133.883 1.66406 132.258 1.40625 130.477 1.40625C128.758 1.40625 127.164 1.63281 125.695 2.08594C124.227 2.52344 122.953 3.15625 121.875 3.98438C120.797 4.8125 119.953 5.8125 119.344 6.98438C118.734 8.15625 118.43 9.46094 118.43 10.8984C118.43 12.1484 118.656 13.3047 119.109 14.3672C119.578 15.4297 120.266 16.3984 121.172 17.2734C122.078 18.1484 123.242 18.9531 124.664 19.6875C126.102 20.4219 127.766 21.0469 129.656 21.5625C130.875 21.8906 131.891 22.25 132.703 22.6406C133.531 23.0156 134.203 23.4297 134.719 23.8828C135.219 24.3516 135.57 24.8516 135.773 25.3828C135.992 25.9141 136.102 26.4844 136.102 27.0938ZM159.398 4.42969H152.883V10.6406H147.094V15.4453H152.883V26.9766C152.883 28.6484 153.102 30.0859 153.539 31.2891C153.977 32.4766 154.602 33.4531 155.414 34.2188C156.211 35 157.172 35.5781 158.297 35.9531C159.438 36.3125 160.703 36.4922 162.094 36.4922C162.812 36.4922 163.539 36.4531 164.273 36.375C165.023 36.3125 165.742 36.2188 166.43 36.0938C167.117 35.9688 167.766 35.8125 168.375 35.625C168.984 35.4219 169.516 35.1875 169.969 34.9219L169.336 30.4453C169.039 30.5234 168.68 30.6016 168.258 30.6797C167.852 30.7578 167.414 30.8281 166.945 30.8906C166.461 30.9688 165.953 31.0312 165.422 31.0781C164.906 31.125 164.398 31.1484 163.898 31.1484C163.211 31.1484 162.586 31.0703 162.023 30.9141C161.477 30.7578 161.008 30.4922 160.617 30.1172C160.227 29.7578 159.922 29.2734 159.703 28.6641C159.5 28.0391 159.398 27.2656 159.398 26.3438V15.4453H168.867V10.6406H159.398V4.42969ZM192.117 36H198.727V35.6016C198.398 34.9609 198.148 34.1953 197.977 33.3047C197.805 32.4141 197.719 31.2891 197.719 29.9297V19.0547C197.719 17.5859 197.445 16.2969 196.898 15.1875C196.352 14.0625 195.594 13.1328 194.625 12.3984C193.656 11.6641 192.508 11.1094 191.18 10.7344C189.867 10.3594 188.445 10.1719 186.914 10.1719C185.211 10.1719 183.695 10.3906 182.367 10.8281C181.055 11.25 179.945 11.8281 179.039 12.5625C178.117 13.2969 177.414 14.1484 176.93 15.1172C176.461 16.0859 176.227 17.1094 176.227 18.1875H182.742C182.742 17.7344 182.805 17.3203 182.93 16.9453C183.07 16.5703 183.281 16.25 183.562 15.9844C183.875 15.6875 184.281 15.4609 184.781 15.3047C185.281 15.1328 185.875 15.0469 186.562 15.0469C187.344 15.0469 188.023 15.1484 188.602 15.3516C189.195 15.5391 189.688 15.8125 190.078 16.1719C190.453 16.5156 190.734 16.9297 190.922 17.4141C191.109 17.8828 191.203 18.4141 191.203 19.0078V20.5078H187.57C185.695 20.5078 184.031 20.6797 182.578 21.0234C181.141 21.3516 179.93 21.8359 178.945 22.4766C177.852 23.1797 177.031 24.0781 176.484 25.1719C175.938 26.25 175.664 27.4922 175.664 28.8984C175.664 29.9922 175.883 31.0078 176.32 31.9453C176.758 32.8672 177.367 33.6641 178.148 34.3359C178.93 35.0078 179.859 35.5312 180.938 35.9062C182.031 36.2812 183.227 36.4688 184.523 36.4688C185.32 36.4688 186.062 36.3906 186.75 36.2344C187.438 36.0938 188.07 35.8906 188.648 35.625C189.211 35.375 189.727 35.0781 190.195 34.7344C190.664 34.3906 191.078 34.0234 191.438 33.6328C191.516 34.0859 191.609 34.5156 191.719 34.9219C191.828 35.3281 191.961 35.6875 192.117 36ZM185.906 31.4297C185.297 31.4297 184.758 31.3594 184.289 31.2188C183.836 31.0625 183.453 30.8594 183.141 30.6094C182.828 30.3438 182.586 30.0234 182.414 29.6484C182.258 29.2578 182.18 28.8359 182.18 28.3828C182.18 27.8047 182.289 27.2734 182.508 26.7891C182.727 26.2891 183.062 25.8594 183.516 25.5C183.969 25.1562 184.555 24.8906 185.273 24.7031C185.992 24.5 186.859 24.3984 187.875 24.3984H191.203V28.7578C191.016 29.0859 190.758 29.4141 190.43 29.7422C190.102 30.0547 189.711 30.3359 189.258 30.5859C188.805 30.8359 188.297 31.0391 187.734 31.1953C187.172 31.3516 186.562 31.4297 185.906 31.4297ZM216.328 31.2656C215.281 31.2656 214.414 31.0547 213.727 30.6328C213.055 30.2109 212.523 29.6484 212.133 28.9453C211.727 28.2578 211.445 27.4609 211.289 26.5547C211.133 25.6328 211.055 24.6797 211.055 23.6953V22.9922C211.055 22.0234 211.133 21.0859 211.289 20.1797C211.461 19.2734 211.75 18.4688 212.156 17.7656C212.547 17.0625 213.078 16.5 213.75 16.0781C214.422 15.6562 215.273 15.4453 216.305 15.4453C217.008 15.4453 217.656 15.5703 218.25 15.8203C218.844 16.0547 219.352 16.375 219.773 16.7812C220.195 17.1875 220.516 17.6719 220.734 18.2344C220.953 18.7969 221.047 19.3906 221.016 20.0156H227.156C227.188 18.5156 226.938 17.1641 226.406 15.9609C225.875 14.7422 225.133 13.7031 224.18 12.8438C223.211 12 222.062 11.3438 220.734 10.875C219.406 10.4062 217.961 10.1719 216.398 10.1719C214.445 10.1719 212.727 10.5078 211.242 11.1797C209.773 11.8516 208.539 12.7656 207.539 13.9219C206.539 15.0781 205.789 16.4375 205.289 18C204.789 19.5469 204.539 21.2109 204.539 22.9922V23.6953C204.539 25.4766 204.789 27.1484 205.289 28.7109C205.805 30.2578 206.562 31.6094 207.562 32.7656C208.547 33.9219 209.781 34.8359 211.266 35.5078C212.75 36.1641 214.477 36.4922 216.445 36.4922C217.898 36.4922 219.273 36.2656 220.57 35.8125C221.883 35.3438 223.031 34.7031 224.016 33.8906C225 33.0781 225.773 32.1094 226.336 30.9844C226.914 29.8594 227.188 28.6406 227.156 27.3281H221.016C221.047 27.9219 220.938 28.4609 220.688 28.9453C220.453 29.4297 220.117 29.8438 219.68 30.1875C219.242 30.5312 218.734 30.7969 218.156 30.9844C217.578 31.1719 216.969 31.2656 216.328 31.2656ZM243.469 25.5234L250.664 36H258.656L247.758 21.2109L257.32 10.6406H249.492L242.484 18.3281L240.516 20.5781V0H234V36H240.516V28.2656L243.469 25.5234ZM302.93 23.25L309.352 36H316.406V35.6953L309.07 21.6094C310.008 21.1875 310.852 20.6875 311.602 20.1094C312.367 19.5312 313.023 18.8516 313.57 18.0703C314.102 17.3047 314.508 16.4375 314.789 15.4688C315.086 14.4844 315.234 13.3828 315.234 12.1641C315.234 10.4766 314.938 8.99219 314.344 7.71094C313.766 6.42969 312.938 5.35938 311.859 4.5C310.766 3.64062 309.453 2.99219 307.922 2.55469C306.391 2.10156 304.68 1.875 302.789 1.875H291.352V36H297.938V23.25H302.93ZM297.938 17.9062V7.21875H302.789C303.695 7.21875 304.5 7.32812 305.203 7.54688C305.906 7.76562 306.5 8.07812 306.984 8.48438C307.531 8.9375 307.938 9.51562 308.203 10.2188C308.484 10.9062 308.625 11.7031 308.625 12.6094C308.625 13.3594 308.516 14.0391 308.297 14.6484C308.094 15.2578 307.789 15.7812 307.383 16.2188C306.898 16.7656 306.266 17.1875 305.484 17.4844C304.719 17.7656 303.828 17.9062 302.812 17.9062H297.938ZM332.719 36.4688C335.172 36.4688 337.297 35.9922 339.094 35.0391C340.891 34.0859 342.203 33.0234 343.031 31.8516L339.773 28.3359C339.023 29.3047 338.047 30.0312 336.844 30.5156C335.641 31 334.398 31.2422 333.117 31.2422C332.211 31.2422 331.375 31.1016 330.609 30.8203C329.844 30.5391 329.164 30.1406 328.57 29.625C327.992 29.125 327.531 28.5703 327.188 27.9609C326.844 27.3359 326.562 26.5156 326.344 25.5V25.4297H343.547V22.6641C343.547 20.8047 343.289 19.1094 342.773 17.5781C342.258 16.0312 341.508 14.7109 340.523 13.6172C339.523 12.5234 338.305 11.6797 336.867 11.0859C335.445 10.4766 333.82 10.1719 331.992 10.1719C330.227 10.1719 328.594 10.4922 327.094 11.1328C325.594 11.7734 324.297 12.6719 323.203 13.8281C322.109 14.9844 321.258 16.3672 320.648 17.9766C320.039 19.5703 319.734 21.3359 319.734 23.2734V24.2109C319.734 25.9141 320.039 27.5156 320.648 29.0156C321.273 30.5 322.156 31.7891 323.297 32.8828C324.438 33.9922 325.805 34.8672 327.398 35.5078C328.992 36.1484 330.766 36.4688 332.719 36.4688ZM331.945 15.4453C332.773 15.4453 333.5 15.5781 334.125 15.8438C334.766 16.0938 335.305 16.4375 335.742 16.875C336.18 17.3281 336.523 17.8594 336.773 18.4688C337.023 19.0781 337.148 19.7266 337.148 20.4141V20.9297H326.461C326.617 20.1016 326.852 19.3516 327.164 18.6797C327.477 18.0078 327.867 17.4297 328.336 16.9453C328.789 16.4609 329.32 16.0938 329.93 15.8438C330.539 15.5781 331.211 15.4453 331.945 15.4453ZM349.336 45.75H355.852V33.7969C356.148 34.125 356.461 34.4219 356.789 34.6875C357.117 34.9531 357.461 35.1953 357.82 35.4141C358.43 35.7578 359.086 36.0156 359.789 36.1875C360.508 36.375 361.289 36.4688 362.133 36.4688C363.727 36.4688 365.141 36.1406 366.375 35.4844C367.609 34.8281 368.648 33.9219 369.492 32.7656C370.32 31.625 370.945 30.2656 371.367 28.6875C371.805 27.1094 372.023 25.3984 372.023 23.5547V23.0625C372.023 21.1406 371.805 19.3906 371.367 17.8125C370.945 16.2188 370.312 14.8516 369.469 13.7109C368.625 12.5859 367.586 11.7188 366.352 11.1094C365.117 10.4844 363.695 10.1719 362.086 10.1719C361.305 10.1719 360.57 10.2578 359.883 10.4297C359.211 10.5859 358.594 10.8125 358.031 11.1094C357.562 11.3594 357.125 11.6562 356.719 12C356.312 12.3281 355.938 12.7031 355.594 13.125L355.359 10.6406H349.336V45.75ZM365.508 23.0625V23.5547C365.508 24.6016 365.414 25.5938 365.227 26.5312C365.039 27.4531 364.742 28.2656 364.336 28.9688C363.93 29.6719 363.398 30.2266 362.742 30.6328C362.102 31.0391 361.32 31.2422 360.398 31.2422C359.82 31.2422 359.297 31.1875 358.828 31.0781C358.359 30.9531 357.945 30.7812 357.586 30.5625C357.211 30.3281 356.875 30.0469 356.578 29.7188C356.297 29.3906 356.055 29.0234 355.852 28.6172V18.0234C356.07 17.5859 356.328 17.2031 356.625 16.875C356.938 16.5469 357.297 16.2734 357.703 16.0547C358.062 15.8672 358.461 15.7266 358.898 15.6328C359.336 15.5234 359.82 15.4688 360.352 15.4688C361.273 15.4688 362.055 15.6641 362.695 16.0547C363.352 16.4453 363.891 16.9766 364.312 17.6484C364.719 18.3359 365.016 19.1484 365.203 20.0859C365.406 21.0078 365.508 22 365.508 23.0625ZM377.18 23.0859V23.5781C377.18 25.4375 377.445 27.1562 377.977 28.7344C378.508 30.2969 379.289 31.6562 380.32 32.8125C381.336 33.9688 382.586 34.875 384.07 35.5312C385.57 36.1719 387.273 36.4922 389.18 36.4922C391.07 36.4922 392.758 36.1719 394.242 35.5312C395.727 34.875 396.977 33.9688 397.992 32.8125C399.008 31.6562 399.781 30.2969 400.312 28.7344C400.844 27.1562 401.109 25.4375 401.109 23.5781V23.0859C401.109 21.2422 400.844 19.5391 400.312 17.9766C399.781 16.3984 399.008 15.0312 397.992 13.875C396.961 12.7188 395.703 11.8125 394.219 11.1562C392.734 10.5 391.039 10.1719 389.133 10.1719C387.227 10.1719 385.531 10.5 384.047 11.1562C382.578 11.8125 381.336 12.7188 380.32 13.875C379.289 15.0312 378.508 16.3984 377.977 17.9766C377.445 19.5391 377.18 21.2422 377.18 23.0859ZM383.695 23.5781V23.0859C383.695 22.0547 383.797 21.0781 384 20.1562C384.203 19.2344 384.523 18.4219 384.961 17.7188C385.398 17.0156 385.961 16.4609 386.648 16.0547C387.336 15.6484 388.164 15.4453 389.133 15.4453C390.117 15.4453 390.953 15.6484 391.641 16.0547C392.328 16.4609 392.891 17.0156 393.328 17.7188C393.75 18.4219 394.062 19.2344 394.266 20.1562C394.469 21.0781 394.57 22.0547 394.57 23.0859V23.5781C394.57 24.6406 394.469 25.6406 394.266 26.5781C394.062 27.5 393.75 28.3047 393.328 28.9922C392.891 29.6953 392.328 30.25 391.641 30.6562C390.953 31.0625 390.133 31.2656 389.18 31.2656C388.195 31.2656 387.352 31.0625 386.648 30.6562C385.961 30.25 385.398 29.6953 384.961 28.9922C384.523 28.3047 384.203 27.5 384 26.5781C383.797 25.6406 383.695 24.6406 383.695 23.5781ZM425.109 10.1719C423.406 10.1719 421.836 10.5859 420.398 11.4141C418.961 12.2266 417.727 13.3516 416.695 14.7891L416.648 14.2266L416.391 10.6406H410.32V36H416.836V20.7656C417.133 20.0469 417.508 19.4219 417.961 18.8906C418.414 18.3594 418.961 17.9219 419.602 17.5781C420.133 17.2812 420.734 17.0625 421.406 16.9219C422.094 16.7656 422.859 16.6875 423.703 16.6875C424.516 16.6875 425.367 16.7422 426.258 16.8516C427.164 16.9453 428.047 17.0938 428.906 17.2969L429.867 10.8047C429.352 10.6484 428.672 10.5078 427.828 10.3828C427 10.2422 426.094 10.1719 425.109 10.1719ZM447.68 4.42969H441.164V10.6406H435.375V15.4453H441.164V26.9766C441.164 28.6484 441.383 30.0859 441.82 31.2891C442.258 32.4766 442.883 33.4531 443.695 34.2188C444.492 35 445.453 35.5781 446.578 35.9531C447.719 36.3125 448.984 36.4922 450.375 36.4922C451.094 36.4922 451.82 36.4531 452.555 36.375C453.305 36.3125 454.023 36.2188 454.711 36.0938C455.398 35.9688 456.047 35.8125 456.656 35.625C457.266 35.4219 457.797 35.1875 458.25 34.9219L457.617 30.4453C457.32 30.5234 456.961 30.6016 456.539 30.6797C456.133 30.7578 455.695 30.8281 455.227 30.8906C454.742 30.9688 454.234 31.0312 453.703 31.0781C453.188 31.125 452.68 31.1484 452.18 31.1484C451.492 31.1484 450.867 31.0703 450.305 30.9141C449.758 30.7578 449.289 30.4922 448.898 30.1172C448.508 29.7578 448.203 29.2734 447.984 28.6641C447.781 28.0391 447.68 27.2656 447.68 26.3438V15.4453H457.148V10.6406H447.68V4.42969Z" fill="black"/>
</svg>
