<svg width="19" height="28" viewBox="0 0 19 28" fill="none" xmlns="http://www.w3.org/2000/svg">
<path d="M9.48891 27.8414C7.60491 27.8414 5.96091 27.5414 4.55691 26.9414C3.15291 26.3414 2.06091 25.4414 1.28091 24.2414C0.500911 23.0294 0.110911 21.5294 0.110911 19.7414C0.110911 19.5374 0.110911 19.3574 0.110911 19.2014C0.110911 19.0334 0.110911 18.8474 0.110911 18.6434H4.84491C4.84491 18.8234 4.84491 18.9914 4.84491 19.1474C4.84491 19.2914 4.84491 19.4594 4.84491 19.6514C4.84491 21.0914 5.23491 22.1714 6.01491 22.8914C6.80691 23.5994 7.97091 23.9534 9.50691 23.9534C11.0549 23.9534 12.2369 23.6954 13.0529 23.1794C13.8809 22.6634 14.2949 21.8354 14.2949 20.6954C14.2949 19.8674 14.0129 19.1654 13.4489 18.5894C12.8969 18.0014 12.1349 17.4854 11.1629 17.0414C10.1909 16.5974 9.08691 16.1834 7.85091 15.7994C6.45891 15.3674 5.19291 14.8094 4.05291 14.1254C2.91291 13.4414 2.00091 12.5774 1.31691 11.5334C0.632911 10.4894 0.290911 9.20543 0.290911 7.68143C0.290911 6.15743 0.680911 4.86143 1.46091 3.79343C2.25291 2.72543 3.33291 1.91543 4.70091 1.36343C6.08091 0.799433 7.64691 0.517434 9.39891 0.517434C11.2349 0.517434 12.8489 0.805434 14.2409 1.38143C15.6449 1.95743 16.7429 2.81543 17.5349 3.95543C18.3269 5.09543 18.7229 6.51743 18.7229 8.22143C18.7229 8.44943 18.7229 8.64743 18.7229 8.81543C18.7229 8.98343 18.7229 9.17543 18.7229 9.39143H13.9709C13.9709 9.23543 13.9709 9.07943 13.9709 8.92343C13.9709 8.75543 13.9709 8.59343 13.9709 8.43743C13.9709 7.06943 13.5989 6.06143 12.8549 5.41343C12.1109 4.75343 10.9829 4.42343 9.47091 4.42343C7.99491 4.42343 6.86091 4.68143 6.06891 5.19743C5.27691 5.71343 4.88091 6.53543 4.88091 7.66343C4.88091 8.50343 5.15091 9.20543 5.69091 9.76943C6.23091 10.3334 6.96891 10.8254 7.90491 11.2454C8.85291 11.6534 9.92691 12.0674 11.1269 12.4874C12.7229 13.0154 14.1029 13.6154 15.2669 14.2874C16.4309 14.9474 17.3309 15.7754 17.9669 16.7714C18.6029 17.7554 18.9209 19.0094 18.9209 20.5334C18.9209 22.0934 18.5249 23.4194 17.7329 24.5114C16.9529 25.5914 15.8549 26.4194 14.4389 26.9954C13.0349 27.5594 11.3849 27.8414 9.48891 27.8414Z" fill="#FF584D"/>
</svg>
